<mxfile host="app.diagrams.net" modified="2024-02-01T14:49:14.415Z" agent="Mozilla/5.0 (Macintosh; Intel Mac OS X 10.15; rv:121.0) Gecko/20100101 Firefox/121.0" etag="XmsLbD0PXcIa5G3LBHO5" version="23.1.1" type="device">
  <diagram id="ihpslaOBQvnrLXgvz2NS" name="Page-1">
    <mxGraphModel dx="1026" dy="550" grid="1" gridSize="10" guides="1" tooltips="1" connect="1" arrows="1" fold="1" page="1" pageScale="1" pageWidth="850" pageHeight="1100" math="0" shadow="0">
      <root>
        <mxCell id="0" />
        <mxCell id="1" parent="0" />
        <mxCell id="36sNue6iAS4G9zzr0bja-2" value="" style="rounded=0;whiteSpace=wrap;html=1;" parent="1" vertex="1">
          <mxGeometry x="40" y="20" width="1810" height="325" as="geometry" />
        </mxCell>
        <mxCell id="zyFTkj13hCmkJTpGe8fz-28" value="" style="rounded=0;whiteSpace=wrap;html=1;fillColor=#f5f5f5;strokeColor=#666666;fontColor=#333333;" parent="1" vertex="1">
          <mxGeometry x="40" y="345" width="1810" height="650" as="geometry" />
        </mxCell>
        <mxCell id="qLY9HPjB3zMnq8Yaa36Y-12" value="" style="rounded=0;whiteSpace=wrap;html=1;fillColor=#d5e8d4;strokeColor=#82b366;" parent="1" vertex="1">
          <mxGeometry x="60" y="372.5" width="1750" height="607.5" as="geometry" />
        </mxCell>
        <mxCell id="zyFTkj13hCmkJTpGe8fz-111" value="" style="rounded=0;whiteSpace=wrap;html=1;" parent="1" vertex="1">
          <mxGeometry x="1250" y="470" width="507.5" height="420" as="geometry" />
        </mxCell>
        <mxCell id="zyFTkj13hCmkJTpGe8fz-24" style="edgeStyle=orthogonalEdgeStyle;rounded=0;orthogonalLoop=1;jettySize=auto;html=1;exitX=0;exitY=0.5;exitDx=0;exitDy=0;" parent="1" source="zyFTkj13hCmkJTpGe8fz-173" target="zyFTkj13hCmkJTpGe8fz-19" edge="1">
          <mxGeometry relative="1" as="geometry">
            <mxPoint x="490" y="110" as="sourcePoint" />
          </mxGeometry>
        </mxCell>
        <mxCell id="zyFTkj13hCmkJTpGe8fz-34" style="edgeStyle=orthogonalEdgeStyle;rounded=0;orthogonalLoop=1;jettySize=auto;html=1;entryX=0;entryY=0.5;entryDx=0;entryDy=0;exitX=1;exitY=0.5;exitDx=0;exitDy=0;" parent="1" source="zyFTkj13hCmkJTpGe8fz-173" target="zyFTkj13hCmkJTpGe8fz-33" edge="1">
          <mxGeometry relative="1" as="geometry">
            <mxPoint x="520" y="110" as="sourcePoint" />
          </mxGeometry>
        </mxCell>
        <mxCell id="hghj35xGoxnVzE3regbH-1" value="test/debug in dev and staging" style="edgeLabel;html=1;align=center;verticalAlign=middle;resizable=0;points=[];" parent="zyFTkj13hCmkJTpGe8fz-34" vertex="1" connectable="0">
          <mxGeometry x="-0.232" y="3" relative="1" as="geometry">
            <mxPoint as="offset" />
          </mxGeometry>
        </mxCell>
        <mxCell id="zyFTkj13hCmkJTpGe8fz-36" style="edgeStyle=orthogonalEdgeStyle;rounded=0;orthogonalLoop=1;jettySize=auto;html=1;entryX=1;entryY=0.5;entryDx=0;entryDy=0;" parent="1" source="zyFTkj13hCmkJTpGe8fz-15" target="zyFTkj13hCmkJTpGe8fz-33" edge="1">
          <mxGeometry relative="1" as="geometry" />
        </mxCell>
        <mxCell id="zyFTkj13hCmkJTpGe8fz-151" style="edgeStyle=elbowEdgeStyle;rounded=0;jumpStyle=arc;orthogonalLoop=1;jettySize=auto;html=1;startArrow=none;startFill=0;endArrow=classic;endFill=1;strokeColor=#000000;elbow=vertical;" parent="1" source="zyFTkj13hCmkJTpGe8fz-15" target="zyFTkj13hCmkJTpGe8fz-149" edge="1">
          <mxGeometry relative="1" as="geometry" />
        </mxCell>
        <mxCell id="hghj35xGoxnVzE3regbH-3" value="merge Raft PR into HHS" style="edgeLabel;html=1;align=center;verticalAlign=middle;resizable=0;points=[];" parent="zyFTkj13hCmkJTpGe8fz-151" vertex="1" connectable="0">
          <mxGeometry x="-0.1538" relative="1" as="geometry">
            <mxPoint as="offset" />
          </mxGeometry>
        </mxCell>
        <mxCell id="zyFTkj13hCmkJTpGe8fz-15" value="TANF users / admins" style="ellipse;whiteSpace=wrap;html=1;strokeColor=#000000;fillColor=#ffffff;gradientColor=none;" parent="1" vertex="1">
          <mxGeometry x="990" y="100" width="70" height="70" as="geometry" />
        </mxCell>
        <mxCell id="zyFTkj13hCmkJTpGe8fz-25" style="edgeStyle=orthogonalEdgeStyle;rounded=0;orthogonalLoop=1;jettySize=auto;html=1;entryX=0.75;entryY=0;entryDx=0;entryDy=0;exitX=0;exitY=0.5;exitDx=0;exitDy=0;strokeColor=#FF66B3;" parent="1" source="zyFTkj13hCmkJTpGe8fz-19" target="zyFTkj13hCmkJTpGe8fz-21" edge="1">
          <mxGeometry relative="1" as="geometry">
            <mxPoint x="180" y="99.97" as="sourcePoint" />
            <mxPoint x="330" y="139.97" as="targetPoint" />
            <Array as="points">
              <mxPoint x="160" y="130" />
            </Array>
          </mxGeometry>
        </mxCell>
        <mxCell id="zyFTkj13hCmkJTpGe8fz-134" value="Merge to raft-tdp-main" style="edgeLabel;html=1;align=center;verticalAlign=middle;resizable=0;points=[];" parent="zyFTkj13hCmkJTpGe8fz-25" vertex="1" connectable="0">
          <mxGeometry x="-0.2409" y="-3" relative="1" as="geometry">
            <mxPoint y="14" as="offset" />
          </mxGeometry>
        </mxCell>
        <mxCell id="zyFTkj13hCmkJTpGe8fz-142" style="edgeStyle=elbowEdgeStyle;rounded=0;jumpStyle=arc;orthogonalLoop=1;jettySize=auto;html=1;entryX=0.25;entryY=0;entryDx=0;entryDy=0;startArrow=none;startFill=0;endArrow=classic;endFill=1;strokeColor=#99CCFF;" parent="1" source="zyFTkj13hCmkJTpGe8fz-19" target="zyFTkj13hCmkJTpGe8fz-21" edge="1">
          <mxGeometry relative="1" as="geometry">
            <Array as="points">
              <mxPoint x="120" y="120" />
              <mxPoint x="150" y="120" />
              <mxPoint x="130" y="150" />
            </Array>
          </mxGeometry>
        </mxCell>
        <mxCell id="zyFTkj13hCmkJTpGe8fz-143" value="add dev-deploy labels to open&amp;nbsp;PR" style="edgeLabel;html=1;align=center;verticalAlign=middle;resizable=0;points=[];" parent="zyFTkj13hCmkJTpGe8fz-142" vertex="1" connectable="0">
          <mxGeometry x="-0.1748" y="-2" relative="1" as="geometry">
            <mxPoint as="offset" />
          </mxGeometry>
        </mxCell>
        <mxCell id="zyFTkj13hCmkJTpGe8fz-160" style="edgeStyle=elbowEdgeStyle;rounded=0;jumpStyle=arc;orthogonalLoop=1;jettySize=auto;html=1;entryX=0.5;entryY=0;entryDx=0;entryDy=0;startArrow=none;startFill=0;endArrow=classic;endFill=1;exitX=0.5;exitY=0;exitDx=0;exitDy=0;" parent="1" source="zyFTkj13hCmkJTpGe8fz-19" target="zyFTkj13hCmkJTpGe8fz-149" edge="1">
          <mxGeometry relative="1" as="geometry">
            <Array as="points">
              <mxPoint x="510" y="40" />
            </Array>
          </mxGeometry>
        </mxCell>
        <mxCell id="zyFTkj13hCmkJTpGe8fz-161" value="PRs from Raft to HHS" style="edgeLabel;html=1;align=center;verticalAlign=middle;resizable=0;points=[];" parent="zyFTkj13hCmkJTpGe8fz-160" vertex="1" connectable="0">
          <mxGeometry x="-0.0186" relative="1" as="geometry">
            <mxPoint as="offset" />
          </mxGeometry>
        </mxCell>
        <mxCell id="zyFTkj13hCmkJTpGe8fz-19" value="Raft GitHub" style="whiteSpace=wrap;html=1;aspect=fixed;" parent="1" vertex="1">
          <mxGeometry x="345" y="90" width="80" height="80" as="geometry" />
        </mxCell>
        <mxCell id="zyFTkj13hCmkJTpGe8fz-27" style="edgeStyle=orthogonalEdgeStyle;rounded=0;orthogonalLoop=1;jettySize=auto;html=1;exitX=1;exitY=0.25;exitDx=0;exitDy=0;entryX=-0.037;entryY=0.117;entryDx=0;entryDy=0;strokeColor=#FF66B3;entryPerimeter=0;" parent="1" source="zyFTkj13hCmkJTpGe8fz-21" target="zyFTkj13hCmkJTpGe8fz-26" edge="1">
          <mxGeometry relative="1" as="geometry">
            <Array as="points">
              <mxPoint x="305" y="180" />
              <mxPoint x="305" y="311" />
            </Array>
          </mxGeometry>
        </mxCell>
        <mxCell id="zyFTkj13hCmkJTpGe8fz-135" value="Deploy to staging" style="edgeLabel;html=1;align=center;verticalAlign=middle;resizable=0;points=[];" parent="zyFTkj13hCmkJTpGe8fz-27" vertex="1" connectable="0">
          <mxGeometry x="-0.1083" relative="1" as="geometry">
            <mxPoint x="-51" as="offset" />
          </mxGeometry>
        </mxCell>
        <mxCell id="zyFTkj13hCmkJTpGe8fz-139" style="edgeStyle=elbowEdgeStyle;rounded=0;jumpStyle=arc;orthogonalLoop=1;jettySize=auto;html=1;startArrow=none;startFill=0;endArrow=classic;endFill=1;exitX=1;exitY=0.75;exitDx=0;exitDy=0;strokeColor=#99CCFF;entryX=0;entryY=0.25;entryDx=0;entryDy=0;" parent="1" source="zyFTkj13hCmkJTpGe8fz-21" target="zyFTkj13hCmkJTpGe8fz-26" edge="1">
          <mxGeometry relative="1" as="geometry">
            <mxPoint x="283" y="280" as="targetPoint" />
            <Array as="points">
              <mxPoint x="283" y="300" />
              <mxPoint x="283" y="310" />
              <mxPoint x="280" y="280" />
              <mxPoint x="290" y="300" />
              <mxPoint x="290" y="260" />
            </Array>
          </mxGeometry>
        </mxCell>
        <mxCell id="zyFTkj13hCmkJTpGe8fz-141" value="Deploy to dev&amp;nbsp;" style="edgeLabel;html=1;align=center;verticalAlign=middle;resizable=0;points=[];" parent="zyFTkj13hCmkJTpGe8fz-139" vertex="1" connectable="0">
          <mxGeometry x="-0.1002" y="1" relative="1" as="geometry">
            <mxPoint x="-34" y="1" as="offset" />
          </mxGeometry>
        </mxCell>
        <mxCell id="zyFTkj13hCmkJTpGe8fz-21" value="Raft CircleCI" style="whiteSpace=wrap;html=1;aspect=fixed;" parent="1" vertex="1">
          <mxGeometry x="100" y="160" width="80" height="80" as="geometry" />
        </mxCell>
        <mxCell id="zyFTkj13hCmkJTpGe8fz-30" value="" style="rounded=0;whiteSpace=wrap;html=1;" parent="1" vertex="1">
          <mxGeometry x="70" y="430" width="490" height="530" as="geometry" />
        </mxCell>
        <mxCell id="zyFTkj13hCmkJTpGe8fz-32" value="Cloud.gov URL Router" style="whiteSpace=wrap;html=1;aspect=fixed;fillColor=#fff2cc;strokeColor=#d6b656;" parent="1" vertex="1">
          <mxGeometry x="813.75" y="330" width="80" height="80" as="geometry" />
        </mxCell>
        <mxCell id="zyFTkj13hCmkJTpGe8fz-122" style="edgeStyle=elbowEdgeStyle;rounded=0;orthogonalLoop=1;jettySize=auto;html=1;startArrow=none;startFill=0;endArrow=classic;endFill=1;" parent="1" source="zyFTkj13hCmkJTpGe8fz-26" target="zyFTkj13hCmkJTpGe8fz-121" edge="1">
          <mxGeometry relative="1" as="geometry" />
        </mxCell>
        <mxCell id="zyFTkj13hCmkJTpGe8fz-169" value="Read/write terraform&lt;br&gt;state changes" style="edgeLabel;html=1;align=center;verticalAlign=middle;resizable=0;points=[];" parent="zyFTkj13hCmkJTpGe8fz-122" vertex="1" connectable="0">
          <mxGeometry x="-0.2" relative="1" as="geometry">
            <mxPoint x="-10" y="-12" as="offset" />
          </mxGeometry>
        </mxCell>
        <mxCell id="zyFTkj13hCmkJTpGe8fz-145" style="edgeStyle=elbowEdgeStyle;rounded=0;jumpStyle=arc;orthogonalLoop=1;jettySize=auto;html=1;startArrow=none;startFill=0;endArrow=classic;endFill=1;strokeColor=#99CCFF;exitX=0;exitY=0.75;exitDx=0;exitDy=0;entryX=0.75;entryY=0;entryDx=0;entryDy=0;" parent="1" source="zyFTkj13hCmkJTpGe8fz-26" target="zyFTkj13hCmkJTpGe8fz-127" edge="1">
          <mxGeometry relative="1" as="geometry">
            <mxPoint x="310" y="470" as="targetPoint" />
            <Array as="points">
              <mxPoint x="260" y="360" />
              <mxPoint x="370" y="400" />
            </Array>
          </mxGeometry>
        </mxCell>
        <mxCell id="F41vKVcLln0AmlQAPf2m-7" value="Deploy dev apps" style="edgeLabel;html=1;align=center;verticalAlign=middle;resizable=0;points=[];" parent="zyFTkj13hCmkJTpGe8fz-145" vertex="1" connectable="0">
          <mxGeometry x="-0.2995" y="-1" relative="1" as="geometry">
            <mxPoint x="19" y="-6" as="offset" />
          </mxGeometry>
        </mxCell>
        <mxCell id="zyFTkj13hCmkJTpGe8fz-26" value="Cloud.gov API" style="whiteSpace=wrap;html=1;aspect=fixed;fillColor=#fff2cc;strokeColor=#d6b656;" parent="1" vertex="1">
          <mxGeometry x="350" y="300" width="90" height="90" as="geometry" />
        </mxCell>
        <mxCell id="zyFTkj13hCmkJTpGe8fz-37" style="edgeStyle=orthogonalEdgeStyle;rounded=0;orthogonalLoop=1;jettySize=auto;html=1;" parent="1" source="zyFTkj13hCmkJTpGe8fz-33" target="zyFTkj13hCmkJTpGe8fz-32" edge="1">
          <mxGeometry relative="1" as="geometry">
            <Array as="points">
              <mxPoint x="850" y="280" />
              <mxPoint x="850" y="280" />
            </Array>
          </mxGeometry>
        </mxCell>
        <mxCell id="zyFTkj13hCmkJTpGe8fz-33" value="Login.gov" style="whiteSpace=wrap;html=1;aspect=fixed;" parent="1" vertex="1">
          <mxGeometry x="813.75" y="150" width="80" height="80" as="geometry" />
        </mxCell>
        <mxCell id="zyFTkj13hCmkJTpGe8fz-38" value="OFA Cloud.gov development space &lt;font color=&quot;#99ccff&quot;&gt;(tanf-dev)&lt;/font&gt;" style="text;html=1;strokeColor=none;fillColor=none;align=center;verticalAlign=middle;whiteSpace=wrap;rounded=0;" parent="1" vertex="1">
          <mxGeometry x="100" y="460" width="200" as="geometry" />
        </mxCell>
        <mxCell id="zyFTkj13hCmkJTpGe8fz-40" value="S3:&lt;br&gt;tdp-staticfiles-dev" style="shape=cylinder3;whiteSpace=wrap;html=1;boundedLbl=1;backgroundOutline=1;size=15;" parent="1" vertex="1">
          <mxGeometry x="460" y="870" width="80" height="80" as="geometry" />
        </mxCell>
        <mxCell id="iFEzOiUUXF2w1ZvzSKyj-13" style="edgeStyle=none;rounded=0;orthogonalLoop=1;jettySize=auto;html=1;" parent="1" source="zyFTkj13hCmkJTpGe8fz-40" target="zyFTkj13hCmkJTpGe8fz-41" edge="1">
          <mxGeometry relative="1" as="geometry">
            <mxPoint x="460" y="910" as="targetPoint" />
          </mxGeometry>
        </mxCell>
        <mxCell id="iFEzOiUUXF2w1ZvzSKyj-31" value="" style="edgeStyle=orthogonalEdgeStyle;rounded=0;orthogonalLoop=1;jettySize=auto;html=1;endArrow=classic;endFill=1;" parent="1" source="zyFTkj13hCmkJTpGe8fz-41" target="zyFTkj13hCmkJTpGe8fz-127" edge="1">
          <mxGeometry relative="1" as="geometry">
            <Array as="points">
              <mxPoint x="440" y="910" />
              <mxPoint x="440" y="830" />
              <mxPoint x="318" y="830" />
              <mxPoint x="318" y="825" />
            </Array>
          </mxGeometry>
        </mxCell>
        <mxCell id="zyFTkj13hCmkJTpGe8fz-41" value="S3:&lt;br&gt;tdp-datafiles-dev" style="shape=cylinder3;whiteSpace=wrap;html=1;boundedLbl=1;backgroundOutline=1;size=15;" parent="1" vertex="1">
          <mxGeometry x="330" y="870" width="85" height="80" as="geometry" />
        </mxCell>
        <mxCell id="iFEzOiUUXF2w1ZvzSKyj-29" style="edgeStyle=orthogonalEdgeStyle;rounded=0;orthogonalLoop=1;jettySize=auto;html=1;exitX=1;exitY=0.75;exitDx=0;exitDy=0;entryX=1;entryY=0.5;entryDx=0;entryDy=0;entryPerimeter=0;endArrow=classic;endFill=1;" parent="1" target="zyFTkj13hCmkJTpGe8fz-41" edge="1">
          <mxGeometry relative="1" as="geometry">
            <Array as="points">
              <mxPoint x="340" y="550" />
              <mxPoint x="340" y="830" />
              <mxPoint x="440" y="830" />
              <mxPoint x="440" y="910" />
            </Array>
            <mxPoint x="310" y="550" as="sourcePoint" />
          </mxGeometry>
        </mxCell>
        <mxCell id="zyFTkj13hCmkJTpGe8fz-44" value="tdp-frontend-a11y" style="whiteSpace=wrap;html=1;aspect=fixed;" parent="1" vertex="1">
          <mxGeometry x="100" y="580" width="80" height="80" as="geometry" />
        </mxCell>
        <mxCell id="zyFTkj13hCmkJTpGe8fz-96" style="edgeStyle=orthogonalEdgeStyle;rounded=0;orthogonalLoop=1;jettySize=auto;html=1;exitX=1;exitY=0.5;exitDx=0;exitDy=0;" parent="1" source="zyFTkj13hCmkJTpGe8fz-45" target="zyFTkj13hCmkJTpGe8fz-40" edge="1">
          <mxGeometry relative="1" as="geometry">
            <Array as="points">
              <mxPoint x="310" y="650" />
              <mxPoint x="340" y="650" />
              <mxPoint x="340" y="830" />
              <mxPoint x="440" y="830" />
              <mxPoint x="440" y="910" />
            </Array>
          </mxGeometry>
        </mxCell>
        <mxCell id="uwoBpqirYSs3N-8qe25S-10" style="edgeStyle=orthogonalEdgeStyle;rounded=0;orthogonalLoop=1;jettySize=auto;html=1;exitX=0;exitY=0.25;exitDx=0;exitDy=0;endArrow=none;endFill=0;startArrow=classic;startFill=1;" parent="1" source="zyFTkj13hCmkJTpGe8fz-127" edge="1">
          <mxGeometry relative="1" as="geometry">
            <mxPoint x="200" y="600.1428571428571" as="targetPoint" />
          </mxGeometry>
        </mxCell>
        <mxCell id="iFEzOiUUXF2w1ZvzSKyj-17" style="edgeStyle=none;rounded=0;orthogonalLoop=1;jettySize=auto;html=1;exitX=1;exitY=0.5;exitDx=0;exitDy=0;entryX=0;entryY=0.5;entryDx=0;entryDy=0;" parent="1" target="iFEzOiUUXF2w1ZvzSKyj-1" edge="1">
          <mxGeometry relative="1" as="geometry">
            <mxPoint x="440" y="620" as="sourcePoint" />
            <Array as="points" />
          </mxGeometry>
        </mxCell>
        <mxCell id="zyFTkj13hCmkJTpGe8fz-45" value="tdp-backend-a11y" style="whiteSpace=wrap;html=1;aspect=fixed;" parent="1" vertex="1">
          <mxGeometry x="230" y="580" width="80" height="80" as="geometry" />
        </mxCell>
        <mxCell id="zyFTkj13hCmkJTpGe8fz-48" value="tdp-frontend-raft" style="whiteSpace=wrap;html=1;aspect=fixed;" parent="1" vertex="1">
          <mxGeometry x="100" y="670" width="80" height="80" as="geometry" />
        </mxCell>
        <mxCell id="zyFTkj13hCmkJTpGe8fz-98" style="edgeStyle=elbowEdgeStyle;rounded=0;orthogonalLoop=1;jettySize=auto;html=1;endArrow=none;endFill=0;" parent="1" source="zyFTkj13hCmkJTpGe8fz-49" edge="1">
          <mxGeometry relative="1" as="geometry">
            <mxPoint x="340" y="710" as="targetPoint" />
            <Array as="points">
              <mxPoint x="340" y="740" />
              <mxPoint x="325" y="740" />
            </Array>
          </mxGeometry>
        </mxCell>
        <mxCell id="uwoBpqirYSs3N-8qe25S-11" style="edgeStyle=orthogonalEdgeStyle;rounded=0;orthogonalLoop=1;jettySize=auto;html=1;exitX=0;exitY=0.25;exitDx=0;exitDy=0;endArrow=none;endFill=0;startArrow=classic;startFill=1;" parent="1" source="zyFTkj13hCmkJTpGe8fz-49" edge="1">
          <mxGeometry relative="1" as="geometry">
            <mxPoint x="200" y="689.8571428571429" as="targetPoint" />
          </mxGeometry>
        </mxCell>
        <mxCell id="iFEzOiUUXF2w1ZvzSKyj-19" style="edgeStyle=none;rounded=0;orthogonalLoop=1;jettySize=auto;html=1;exitX=1;exitY=0.5;exitDx=0;exitDy=0;" parent="1" target="iFEzOiUUXF2w1ZvzSKyj-2" edge="1">
          <mxGeometry relative="1" as="geometry">
            <mxPoint x="440" y="620" as="sourcePoint" />
            <Array as="points">
              <mxPoint x="450" y="620" />
              <mxPoint x="450" y="710" />
            </Array>
          </mxGeometry>
        </mxCell>
        <mxCell id="zyFTkj13hCmkJTpGe8fz-49" value="tdp-backend-raft" style="whiteSpace=wrap;html=1;aspect=fixed;" parent="1" vertex="1">
          <mxGeometry x="230" y="670" width="80" height="80" as="geometry" />
        </mxCell>
        <mxCell id="zyFTkj13hCmkJTpGe8fz-50" value="tdp-frontend-qasp" style="whiteSpace=wrap;html=1;aspect=fixed;" parent="1" vertex="1">
          <mxGeometry x="100" y="760" width="80" height="80" as="geometry" />
        </mxCell>
        <mxCell id="zyFTkj13hCmkJTpGe8fz-100" style="edgeStyle=elbowEdgeStyle;rounded=0;orthogonalLoop=1;jettySize=auto;html=1;endArrow=none;endFill=0;" parent="1" source="zyFTkj13hCmkJTpGe8fz-51" edge="1">
          <mxGeometry relative="1" as="geometry">
            <mxPoint x="340" y="830" as="targetPoint" />
            <Array as="points">
              <mxPoint x="330" y="830" />
              <mxPoint x="340" y="740" />
            </Array>
          </mxGeometry>
        </mxCell>
        <mxCell id="uwoBpqirYSs3N-8qe25S-12" style="edgeStyle=orthogonalEdgeStyle;rounded=0;orthogonalLoop=1;jettySize=auto;html=1;exitX=0;exitY=0.25;exitDx=0;exitDy=0;endArrow=none;endFill=0;startArrow=classic;startFill=1;" parent="1" source="zyFTkj13hCmkJTpGe8fz-51" edge="1">
          <mxGeometry relative="1" as="geometry">
            <mxPoint x="200" y="780.1428571428571" as="targetPoint" />
          </mxGeometry>
        </mxCell>
        <mxCell id="iFEzOiUUXF2w1ZvzSKyj-23" style="edgeStyle=none;rounded=0;orthogonalLoop=1;jettySize=auto;html=1;exitX=1;exitY=0.5;exitDx=0;exitDy=0;entryX=0;entryY=0.5;entryDx=0;entryDy=0;" parent="1" target="iFEzOiUUXF2w1ZvzSKyj-3" edge="1">
          <mxGeometry relative="1" as="geometry">
            <mxPoint x="440" y="620" as="sourcePoint" />
            <Array as="points">
              <mxPoint x="450" y="620" />
              <mxPoint x="450" y="800" />
            </Array>
          </mxGeometry>
        </mxCell>
        <mxCell id="zyFTkj13hCmkJTpGe8fz-51" value="tdp-backend-qasp" style="whiteSpace=wrap;html=1;aspect=fixed;" parent="1" vertex="1">
          <mxGeometry x="230" y="760" width="80" height="80" as="geometry" />
        </mxCell>
        <mxCell id="zyFTkj13hCmkJTpGe8fz-52" value="" style="rounded=0;whiteSpace=wrap;html=1;" parent="1" vertex="1">
          <mxGeometry x="630" y="470" width="507.5" height="360" as="geometry" />
        </mxCell>
        <mxCell id="zyFTkj13hCmkJTpGe8fz-53" value="OFA Cloud.gov staging space &lt;br&gt;&lt;font color=&quot;#ff66b3&quot;&gt;(tanf-staging)&lt;/font&gt;" style="text;html=1;strokeColor=none;fillColor=none;align=center;verticalAlign=middle;whiteSpace=wrap;rounded=0;" parent="1" vertex="1">
          <mxGeometry x="670" y="495" width="200" as="geometry" />
        </mxCell>
        <mxCell id="zyFTkj13hCmkJTpGe8fz-55" value="tdp-staticfiles-staging" style="shape=cylinder3;whiteSpace=wrap;html=1;boundedLbl=1;backgroundOutline=1;size=15;" parent="1" vertex="1">
          <mxGeometry x="905" y="732.5" width="60" height="80" as="geometry" />
        </mxCell>
        <mxCell id="zyFTkj13hCmkJTpGe8fz-56" value="tdp-datafiles-staging" style="shape=cylinder3;whiteSpace=wrap;html=1;boundedLbl=1;backgroundOutline=1;size=15;" parent="1" vertex="1">
          <mxGeometry x="965" y="732.5" width="60" height="80" as="geometry" />
        </mxCell>
        <mxCell id="zyFTkj13hCmkJTpGe8fz-67" style="edgeStyle=orthogonalEdgeStyle;rounded=0;orthogonalLoop=1;jettySize=auto;html=1;" parent="1" source="zyFTkj13hCmkJTpGe8fz-57" target="zyFTkj13hCmkJTpGe8fz-58" edge="1">
          <mxGeometry relative="1" as="geometry" />
        </mxCell>
        <mxCell id="zyFTkj13hCmkJTpGe8fz-57" value="tdp-frontend-staging" style="whiteSpace=wrap;html=1;aspect=fixed;" parent="1" vertex="1">
          <mxGeometry x="670" y="630" width="80" height="80" as="geometry" />
        </mxCell>
        <mxCell id="GpQ4ue8xVr6rsBJFWR4N-3" style="edgeStyle=orthogonalEdgeStyle;rounded=0;orthogonalLoop=1;jettySize=auto;html=1;exitX=1;exitY=0.5;exitDx=0;exitDy=0;entryX=0.5;entryY=0;entryDx=0;entryDy=0;entryPerimeter=0;" parent="1" source="zyFTkj13hCmkJTpGe8fz-58" target="zyFTkj13hCmkJTpGe8fz-55" edge="1">
          <mxGeometry relative="1" as="geometry">
            <Array as="points">
              <mxPoint x="935" y="720" />
            </Array>
          </mxGeometry>
        </mxCell>
        <mxCell id="GpQ4ue8xVr6rsBJFWR4N-6" style="edgeStyle=orthogonalEdgeStyle;rounded=0;orthogonalLoop=1;jettySize=auto;html=1;exitX=1;exitY=0.5;exitDx=0;exitDy=0;entryX=0.5;entryY=0;entryDx=0;entryDy=0;entryPerimeter=0;" parent="1" source="zyFTkj13hCmkJTpGe8fz-58" target="zyFTkj13hCmkJTpGe8fz-56" edge="1">
          <mxGeometry relative="1" as="geometry">
            <Array as="points">
              <mxPoint x="995" y="720" />
            </Array>
          </mxGeometry>
        </mxCell>
        <mxCell id="GpQ4ue8xVr6rsBJFWR4N-8" style="edgeStyle=orthogonalEdgeStyle;rounded=0;orthogonalLoop=1;jettySize=auto;html=1;exitX=1;exitY=0.25;exitDx=0;exitDy=0;entryX=0.5;entryY=0;entryDx=0;entryDy=0;" parent="1" source="zyFTkj13hCmkJTpGe8fz-58" target="qLY9HPjB3zMnq8Yaa36Y-3" edge="1">
          <mxGeometry relative="1" as="geometry">
            <Array as="points">
              <mxPoint x="880" y="720" />
              <mxPoint x="1060" y="720" />
            </Array>
          </mxGeometry>
        </mxCell>
        <mxCell id="zyFTkj13hCmkJTpGe8fz-58" value="tdp-backend-staging" style="whiteSpace=wrap;html=1;aspect=fixed;" parent="1" vertex="1">
          <mxGeometry x="800" y="680" width="80" height="80" as="geometry" />
        </mxCell>
        <mxCell id="zyFTkj13hCmkJTpGe8fz-103" value="OFA Cloud.gov production space&lt;br&gt;&lt;font color=&quot;#ffcc99&quot;&gt;(tanf-production)&lt;/font&gt;" style="text;html=1;strokeColor=none;fillColor=none;align=center;verticalAlign=middle;whiteSpace=wrap;rounded=0;" parent="1" vertex="1">
          <mxGeometry x="1260" y="490" width="200" as="geometry" />
        </mxCell>
        <mxCell id="zyFTkj13hCmkJTpGe8fz-164" style="edgeStyle=elbowEdgeStyle;rounded=0;jumpStyle=arc;orthogonalLoop=1;jettySize=auto;html=1;startArrow=classic;startFill=1;endArrow=none;endFill=0;strokeColor=#000000;" parent="1" source="zyFTkj13hCmkJTpGe8fz-105" edge="1">
          <mxGeometry relative="1" as="geometry">
            <mxPoint x="1571" y="680" as="targetPoint" />
          </mxGeometry>
        </mxCell>
        <mxCell id="zyFTkj13hCmkJTpGe8fz-105" value="tdp-staticfiles-production" style="shape=cylinder3;whiteSpace=wrap;html=1;boundedLbl=1;backgroundOutline=1;size=15;" parent="1" vertex="1">
          <mxGeometry x="1540" y="710" width="62.5" height="90" as="geometry" />
        </mxCell>
        <mxCell id="zyFTkj13hCmkJTpGe8fz-163" style="edgeStyle=elbowEdgeStyle;rounded=0;jumpStyle=arc;orthogonalLoop=1;jettySize=auto;html=1;startArrow=classic;startFill=1;endArrow=none;endFill=0;strokeColor=#000000;exitX=0.5;exitY=0;exitDx=0;exitDy=0;exitPerimeter=0;entryX=1;entryY=0.25;entryDx=0;entryDy=0;" parent="1" source="zyFTkj13hCmkJTpGe8fz-106" target="zyFTkj13hCmkJTpGe8fz-110" edge="1">
          <mxGeometry relative="1" as="geometry">
            <mxPoint x="1630" y="670" as="targetPoint" />
            <Array as="points">
              <mxPoint x="1674" y="690" />
            </Array>
          </mxGeometry>
        </mxCell>
        <mxCell id="zyFTkj13hCmkJTpGe8fz-106" value="tdp-datafiles-production" style="shape=cylinder3;whiteSpace=wrap;html=1;boundedLbl=1;backgroundOutline=1;size=15;" parent="1" vertex="1">
          <mxGeometry x="1640" y="710" width="67.5" height="90" as="geometry" />
        </mxCell>
        <mxCell id="zyFTkj13hCmkJTpGe8fz-130" style="edgeStyle=elbowEdgeStyle;rounded=0;orthogonalLoop=1;jettySize=auto;html=1;entryX=0;entryY=0.5;entryDx=0;entryDy=0;startArrow=none;startFill=0;endArrow=classic;endFill=1;" parent="1" source="zyFTkj13hCmkJTpGe8fz-107" target="zyFTkj13hCmkJTpGe8fz-110" edge="1">
          <mxGeometry relative="1" as="geometry" />
        </mxCell>
        <mxCell id="zyFTkj13hCmkJTpGe8fz-107" value="tdp-frontend-production" style="whiteSpace=wrap;html=1;aspect=fixed;" parent="1" vertex="1">
          <mxGeometry x="1282.5" y="660" width="80" height="80" as="geometry" />
        </mxCell>
        <mxCell id="zyFTkj13hCmkJTpGe8fz-108" style="edgeStyle=orthogonalEdgeStyle;rounded=0;orthogonalLoop=1;jettySize=auto;html=1;exitX=1;exitY=0.25;exitDx=0;exitDy=0;" parent="1" source="zyFTkj13hCmkJTpGe8fz-110" edge="1">
          <mxGeometry relative="1" as="geometry">
            <mxPoint x="1490" y="700" as="sourcePoint" />
            <Array as="points">
              <mxPoint x="1540" y="680" />
              <mxPoint x="1540" y="630" />
            </Array>
            <mxPoint x="1611.25" y="630" as="targetPoint" />
          </mxGeometry>
        </mxCell>
        <mxCell id="zyFTkj13hCmkJTpGe8fz-110" value="tdp-backend-production" style="whiteSpace=wrap;html=1;aspect=fixed;" parent="1" vertex="1">
          <mxGeometry x="1412.5" y="660" width="80" height="80" as="geometry" />
        </mxCell>
        <mxCell id="zyFTkj13hCmkJTpGe8fz-121" value="S3:&lt;br&gt;tdp-tf-states" style="shape=cylinder3;whiteSpace=wrap;html=1;boundedLbl=1;backgroundOutline=1;size=15;" parent="1" vertex="1">
          <mxGeometry x="380" y="470" width="60" height="80" as="geometry" />
        </mxCell>
        <mxCell id="zyFTkj13hCmkJTpGe8fz-136" value="AWS GovCloud" style="text;html=1;strokeColor=none;fillColor=none;align=center;verticalAlign=middle;whiteSpace=wrap;rounded=0;dashed=1;opacity=50;" parent="1" vertex="1">
          <mxGeometry x="80" y="350" width="100" height="20" as="geometry" />
        </mxCell>
        <mxCell id="zyFTkj13hCmkJTpGe8fz-137" value="OFA Cloud.gov Organization" style="text;html=1;strokeColor=none;fillColor=none;align=center;verticalAlign=middle;whiteSpace=wrap;rounded=0;dashed=1;opacity=50;" parent="1" vertex="1">
          <mxGeometry x="90" y="390" width="160" height="20" as="geometry" />
        </mxCell>
        <mxCell id="zyFTkj13hCmkJTpGe8fz-147" style="edgeStyle=elbowEdgeStyle;rounded=0;jumpStyle=arc;orthogonalLoop=1;jettySize=auto;html=1;startArrow=none;startFill=0;endArrow=classic;endFill=1;strokeColor=#FF66B3;" parent="1" edge="1">
          <mxGeometry relative="1" as="geometry">
            <Array as="points">
              <mxPoint x="680" y="430" />
              <mxPoint x="680" y="450" />
            </Array>
            <mxPoint x="443" y="336" as="sourcePoint" />
            <mxPoint x="680" y="520" as="targetPoint" />
          </mxGeometry>
        </mxCell>
        <mxCell id="F41vKVcLln0AmlQAPf2m-6" value="Deploy staging apps" style="edgeLabel;html=1;align=center;verticalAlign=middle;resizable=0;points=[];" parent="zyFTkj13hCmkJTpGe8fz-147" vertex="1" connectable="0">
          <mxGeometry x="-0.4459" y="2" relative="1" as="geometry">
            <mxPoint as="offset" />
          </mxGeometry>
        </mxCell>
        <mxCell id="zyFTkj13hCmkJTpGe8fz-157" style="edgeStyle=elbowEdgeStyle;rounded=0;jumpStyle=arc;orthogonalLoop=1;jettySize=auto;html=1;entryX=0.815;entryY=0.009;entryDx=0;entryDy=0;entryPerimeter=0;startArrow=none;startFill=0;endArrow=classic;endFill=1;strokeColor=#FFCC99;" parent="1" source="zyFTkj13hCmkJTpGe8fz-148" target="zyFTkj13hCmkJTpGe8fz-129" edge="1">
          <mxGeometry relative="1" as="geometry">
            <Array as="points">
              <mxPoint x="1466" y="450" />
            </Array>
          </mxGeometry>
        </mxCell>
        <mxCell id="uwoBpqirYSs3N-8qe25S-15" style="edgeStyle=elbowEdgeStyle;rounded=0;jumpStyle=arc;orthogonalLoop=1;jettySize=auto;elbow=vertical;html=1;startArrow=none;startFill=0;endArrow=classic;endFill=1;" parent="1" source="zyFTkj13hCmkJTpGe8fz-148" target="qLY9HPjB3zMnq8Yaa36Y-12" edge="1">
          <mxGeometry relative="1" as="geometry" />
        </mxCell>
        <mxCell id="zyFTkj13hCmkJTpGe8fz-148" value="Cloud.gov API" style="whiteSpace=wrap;html=1;aspect=fixed;fillColor=#fff2cc;strokeColor=#d6b656;" parent="1" vertex="1">
          <mxGeometry x="1420" y="310" width="90" height="90" as="geometry" />
        </mxCell>
        <mxCell id="zyFTkj13hCmkJTpGe8fz-153" style="edgeStyle=elbowEdgeStyle;rounded=0;jumpStyle=arc;orthogonalLoop=1;jettySize=auto;html=1;startArrow=none;startFill=0;endArrow=classic;endFill=1;strokeColor=#000000;entryX=0;entryY=0.25;entryDx=0;entryDy=0;" parent="1" target="zyFTkj13hCmkJTpGe8fz-152" edge="1">
          <mxGeometry relative="1" as="geometry">
            <mxPoint x="1270" y="130" as="sourcePoint" />
            <mxPoint x="1571" y="80" as="targetPoint" />
            <Array as="points">
              <mxPoint x="1270" y="120" />
              <mxPoint x="1380" y="80" />
              <mxPoint x="1400" y="90" />
              <mxPoint x="1300" y="120" />
            </Array>
          </mxGeometry>
        </mxCell>
        <mxCell id="zyFTkj13hCmkJTpGe8fz-154" value="Merge to main" style="edgeLabel;html=1;align=center;verticalAlign=middle;resizable=0;points=[];" parent="zyFTkj13hCmkJTpGe8fz-153" vertex="1" connectable="0">
          <mxGeometry x="0.0604" y="4" relative="1" as="geometry">
            <mxPoint as="offset" />
          </mxGeometry>
        </mxCell>
        <mxCell id="zyFTkj13hCmkJTpGe8fz-149" value="HHS GitHub" style="whiteSpace=wrap;html=1;aspect=fixed;strokeColor=#000000;gradientColor=none;" parent="1" vertex="1">
          <mxGeometry x="1250" y="90" width="80" height="80" as="geometry" />
        </mxCell>
        <mxCell id="zyFTkj13hCmkJTpGe8fz-155" style="edgeStyle=elbowEdgeStyle;rounded=0;jumpStyle=arc;orthogonalLoop=1;jettySize=auto;html=1;startArrow=none;startFill=0;endArrow=classic;endFill=1;strokeColor=#FFCC99;entryX=0.5;entryY=0;entryDx=0;entryDy=0;" parent="1" source="zyFTkj13hCmkJTpGe8fz-152" target="zyFTkj13hCmkJTpGe8fz-148" edge="1">
          <mxGeometry relative="1" as="geometry">
            <mxPoint x="1470" y="250" as="targetPoint" />
            <Array as="points">
              <mxPoint x="1465" y="230" />
            </Array>
          </mxGeometry>
        </mxCell>
        <mxCell id="zyFTkj13hCmkJTpGe8fz-156" value="Deploy to prod" style="edgeLabel;html=1;align=center;verticalAlign=middle;resizable=0;points=[];" parent="zyFTkj13hCmkJTpGe8fz-155" vertex="1" connectable="0">
          <mxGeometry x="-0.3672" y="4" relative="1" as="geometry">
            <mxPoint as="offset" />
          </mxGeometry>
        </mxCell>
        <mxCell id="zyFTkj13hCmkJTpGe8fz-165" style="edgeStyle=elbowEdgeStyle;rounded=0;jumpStyle=arc;orthogonalLoop=1;jettySize=auto;html=1;entryX=0.5;entryY=0;entryDx=0;entryDy=0;entryPerimeter=0;startArrow=none;startFill=0;endArrow=classic;endFill=1;strokeColor=#000000;exitX=1;exitY=0.5;exitDx=0;exitDy=0;" parent="1" source="zyFTkj13hCmkJTpGe8fz-152" target="zyFTkj13hCmkJTpGe8fz-162" edge="1">
          <mxGeometry relative="1" as="geometry">
            <Array as="points">
              <mxPoint x="1674" y="340" />
            </Array>
          </mxGeometry>
        </mxCell>
        <mxCell id="zyFTkj13hCmkJTpGe8fz-168" value="Read/write terraform&lt;br&gt;state changes" style="edgeLabel;html=1;align=center;verticalAlign=middle;resizable=0;points=[];" parent="zyFTkj13hCmkJTpGe8fz-165" vertex="1" connectable="0">
          <mxGeometry x="0.0133" y="1" relative="1" as="geometry">
            <mxPoint x="5" y="-56" as="offset" />
          </mxGeometry>
        </mxCell>
        <mxCell id="zyFTkj13hCmkJTpGe8fz-166" style="edgeStyle=elbowEdgeStyle;rounded=0;jumpStyle=arc;orthogonalLoop=1;jettySize=auto;html=1;startArrow=none;startFill=0;endArrow=classic;endFill=1;strokeColor=#FFCC99;" parent="1" source="zyFTkj13hCmkJTpGe8fz-152" target="zyFTkj13hCmkJTpGe8fz-126" edge="1">
          <mxGeometry relative="1" as="geometry" />
        </mxCell>
        <mxCell id="zyFTkj13hCmkJTpGe8fz-167" value="Terraform: Deploy&lt;br&gt;production services" style="edgeLabel;html=1;align=center;verticalAlign=middle;resizable=0;points=[];" parent="zyFTkj13hCmkJTpGe8fz-166" vertex="1" connectable="0">
          <mxGeometry x="-0.3008" y="-1" relative="1" as="geometry">
            <mxPoint x="10" y="-40" as="offset" />
          </mxGeometry>
        </mxCell>
        <mxCell id="zyFTkj13hCmkJTpGe8fz-152" value="HHS CircleCI" style="whiteSpace=wrap;html=1;aspect=fixed;" parent="1" vertex="1">
          <mxGeometry x="1531.25" y="100" width="80" height="80" as="geometry" />
        </mxCell>
        <mxCell id="zyFTkj13hCmkJTpGe8fz-162" value="tdp-tf-states" style="shape=cylinder3;whiteSpace=wrap;html=1;boundedLbl=1;backgroundOutline=1;size=15;" parent="1" vertex="1">
          <mxGeometry x="1643.75" y="490" width="60" height="80" as="geometry" />
        </mxCell>
        <mxCell id="qLY9HPjB3zMnq8Yaa36Y-7" style="edgeStyle=elbowEdgeStyle;rounded=0;jumpStyle=arc;orthogonalLoop=1;jettySize=auto;html=1;startArrow=none;startFill=0;endArrow=classic;endFill=1;strokeColor=#000000;exitX=0.5;exitY=1;exitDx=0;exitDy=0;entryX=0.75;entryY=0;entryDx=0;entryDy=0;elbow=vertical;" parent="1" source="zyFTkj13hCmkJTpGe8fz-173" target="zyFTkj13hCmkJTpGe8fz-26" edge="1">
          <mxGeometry relative="1" as="geometry">
            <mxPoint x="350" y="220" as="targetPoint" />
          </mxGeometry>
        </mxCell>
        <mxCell id="qLY9HPjB3zMnq8Yaa36Y-8" value="test/debug in dev and staging" style="edgeLabel;html=1;align=center;verticalAlign=middle;resizable=0;points=[];" parent="qLY9HPjB3zMnq8Yaa36Y-7" vertex="1" connectable="0">
          <mxGeometry x="0.4722" y="-4" relative="1" as="geometry">
            <mxPoint x="117" y="4" as="offset" />
          </mxGeometry>
        </mxCell>
        <mxCell id="zyFTkj13hCmkJTpGe8fz-173" value="Developers" style="ellipse;whiteSpace=wrap;html=1;aspect=fixed;strokeColor=#000000;fillColor=#ffffff;gradientColor=none;" parent="1" vertex="1">
          <mxGeometry x="550" y="70" width="80" height="80" as="geometry" />
        </mxCell>
        <mxCell id="uwoBpqirYSs3N-8qe25S-9" style="edgeStyle=orthogonalEdgeStyle;rounded=0;orthogonalLoop=1;jettySize=auto;html=1;endArrow=classic;endFill=1;" parent="1" source="uwoBpqirYSs3N-8qe25S-1" edge="1">
          <mxGeometry relative="1" as="geometry">
            <mxPoint x="230" y="600" as="targetPoint" />
            <Array as="points">
              <mxPoint x="200" y="600" />
              <mxPoint x="230" y="600" />
            </Array>
          </mxGeometry>
        </mxCell>
        <mxCell id="uwoBpqirYSs3N-8qe25S-1" value="clamav-rest" style="whiteSpace=wrap;html=1;aspect=fixed;" parent="1" vertex="1">
          <mxGeometry x="160" y="860" width="80" height="80" as="geometry" />
        </mxCell>
        <mxCell id="qLY9HPjB3zMnq8Yaa36Y-4" style="edgeStyle=elbowEdgeStyle;rounded=0;jumpStyle=arc;orthogonalLoop=1;jettySize=auto;html=1;exitX=1;exitY=0.5;exitDx=0;exitDy=0;startArrow=none;startFill=0;endArrow=classic;endFill=1;strokeColor=#000000;" parent="1" source="zyFTkj13hCmkJTpGe8fz-126" target="zyFTkj13hCmkJTpGe8fz-126" edge="1">
          <mxGeometry relative="1" as="geometry" />
        </mxCell>
        <mxCell id="qLY9HPjB3zMnq8Yaa36Y-5" value="tdp-db-production" style="shape=datastore;whiteSpace=wrap;html=1;strokeColor=#000000;fillColor=#ffffff;gradientColor=none;" parent="1" vertex="1">
          <mxGeometry x="1611.25" y="590" width="60" height="60" as="geometry" />
        </mxCell>
        <mxCell id="zyFTkj13hCmkJTpGe8fz-126" value="" style="rounded=0;whiteSpace=wrap;html=1;dashed=1;fillColor=#dae8fc;strokeColor=#6c8ebf;opacity=40;" parent="1" vertex="1">
          <mxGeometry x="1520" y="480" width="226.25" height="380" as="geometry" />
        </mxCell>
        <mxCell id="uwoBpqirYSs3N-8qe25S-14" style="edgeStyle=orthogonalEdgeStyle;rounded=0;jumpStyle=arc;orthogonalLoop=1;jettySize=auto;html=1;startArrow=none;startFill=0;endArrow=classic;endFill=1;" parent="1" source="uwoBpqirYSs3N-8qe25S-3" target="zyFTkj13hCmkJTpGe8fz-58" edge="1">
          <mxGeometry relative="1" as="geometry">
            <Array as="points">
              <mxPoint x="840" y="740" />
            </Array>
          </mxGeometry>
        </mxCell>
        <mxCell id="uwoBpqirYSs3N-8qe25S-3" value="clamav-rest" style="whiteSpace=wrap;html=1;aspect=fixed;" parent="1" vertex="1">
          <mxGeometry x="670" y="720" width="80" height="80" as="geometry" />
        </mxCell>
        <mxCell id="uwoBpqirYSs3N-8qe25S-18" style="edgeStyle=elbowEdgeStyle;rounded=0;jumpStyle=arc;orthogonalLoop=1;jettySize=auto;html=1;entryX=0.5;entryY=1;entryDx=0;entryDy=0;startArrow=none;startFill=0;endArrow=classic;endFill=1;exitX=1;exitY=0.5;exitDx=0;exitDy=0;" parent="1" source="uwoBpqirYSs3N-8qe25S-4" target="zyFTkj13hCmkJTpGe8fz-110" edge="1">
          <mxGeometry relative="1" as="geometry">
            <Array as="points">
              <mxPoint x="1453" y="770" />
            </Array>
          </mxGeometry>
        </mxCell>
        <mxCell id="uwoBpqirYSs3N-8qe25S-4" value="clamav-rest" style="whiteSpace=wrap;html=1;aspect=fixed;" parent="1" vertex="1">
          <mxGeometry x="1340" y="770" width="80" height="80" as="geometry" />
        </mxCell>
        <mxCell id="zyFTkj13hCmkJTpGe8fz-77" style="edgeStyle=orthogonalEdgeStyle;rounded=0;orthogonalLoop=1;jettySize=auto;html=1;entryX=0;entryY=0.5;entryDx=0;entryDy=0;jumpStyle=arc;" parent="1" source="zyFTkj13hCmkJTpGe8fz-50" target="zyFTkj13hCmkJTpGe8fz-51" edge="1">
          <mxGeometry relative="1" as="geometry" />
        </mxCell>
        <mxCell id="zyFTkj13hCmkJTpGe8fz-76" style="edgeStyle=orthogonalEdgeStyle;rounded=0;orthogonalLoop=1;jettySize=auto;html=1;jumpStyle=arc;" parent="1" source="zyFTkj13hCmkJTpGe8fz-48" target="zyFTkj13hCmkJTpGe8fz-49" edge="1">
          <mxGeometry relative="1" as="geometry" />
        </mxCell>
        <mxCell id="zyFTkj13hCmkJTpGe8fz-75" style="edgeStyle=orthogonalEdgeStyle;rounded=0;orthogonalLoop=1;jettySize=auto;html=1;entryX=0;entryY=0.5;entryDx=0;entryDy=0;jumpStyle=arc;" parent="1" source="zyFTkj13hCmkJTpGe8fz-44" target="zyFTkj13hCmkJTpGe8fz-45" edge="1">
          <mxGeometry relative="1" as="geometry" />
        </mxCell>
        <mxCell id="zyFTkj13hCmkJTpGe8fz-129" value="" style="rounded=0;whiteSpace=wrap;html=1;dashed=1;fillColor=#f8cecc;strokeColor=#b85450;opacity=40;" parent="1" vertex="1">
          <mxGeometry x="1270" y="610" width="240" height="250" as="geometry" />
        </mxCell>
        <mxCell id="iFEzOiUUXF2w1ZvzSKyj-1" value="tdp-db-a11y" style="shape=datastore;whiteSpace=wrap;html=1;strokeColor=#000000;fillColor=#ffffff;gradientColor=none;" parent="1" vertex="1">
          <mxGeometry x="470" y="590" width="60" height="60" as="geometry" />
        </mxCell>
        <mxCell id="iFEzOiUUXF2w1ZvzSKyj-2" value="&lt;div&gt;tdp-db-raft&lt;/div&gt;" style="shape=datastore;whiteSpace=wrap;html=1;strokeColor=#000000;fillColor=#ffffff;gradientColor=none;" parent="1" vertex="1">
          <mxGeometry x="470" y="680" width="60" height="60" as="geometry" />
        </mxCell>
        <mxCell id="F41vKVcLln0AmlQAPf2m-1" value="S3:&lt;br&gt;tdp-tf-states" style="shape=cylinder3;whiteSpace=wrap;html=1;boundedLbl=1;backgroundOutline=1;size=15;" parent="1" vertex="1">
          <mxGeometry x="1070" y="570" width="60" height="80" as="geometry" />
        </mxCell>
        <mxCell id="iFEzOiUUXF2w1ZvzSKyj-3" value="&lt;div&gt;tdp-db-qasp&lt;/div&gt;" style="shape=datastore;whiteSpace=wrap;html=1;strokeColor=#000000;fillColor=#ffffff;gradientColor=none;" parent="1" vertex="1">
          <mxGeometry x="470" y="770" width="60" height="60" as="geometry" />
        </mxCell>
        <mxCell id="iFEzOiUUXF2w1ZvzSKyj-33" value="RDS: &lt;br&gt;tdp-db-dev" style="shape=cylinder3;whiteSpace=wrap;html=1;boundedLbl=1;backgroundOutline=1;size=15;" parent="1" vertex="1">
          <mxGeometry x="380" y="580" width="60" height="80" as="geometry" />
        </mxCell>
        <mxCell id="zyFTkj13hCmkJTpGe8fz-123" value="" style="rounded=0;whiteSpace=wrap;html=1;dashed=1;fillColor=#dae8fc;strokeColor=#6c8ebf;opacity=40;" parent="1" vertex="1">
          <mxGeometry x="330" y="445" width="220" height="510" as="geometry" />
        </mxCell>
        <mxCell id="iFEzOiUUXF2w1ZvzSKyj-35" value="" style="endArrow=classic;html=1;rounded=0;entryX=-0.017;entryY=0.588;entryDx=0;entryDy=0;entryPerimeter=0;" parent="1" target="iFEzOiUUXF2w1ZvzSKyj-33" edge="1">
          <mxGeometry width="50" height="50" relative="1" as="geometry">
            <mxPoint x="340" y="627" as="sourcePoint" />
            <mxPoint x="650" y="660" as="targetPoint" />
            <Array as="points" />
          </mxGeometry>
        </mxCell>
        <mxCell id="F41vKVcLln0AmlQAPf2m-2" style="edgeStyle=elbowEdgeStyle;rounded=0;jumpStyle=arc;orthogonalLoop=1;jettySize=auto;html=1;startArrow=none;startFill=0;endArrow=classic;endFill=1;strokeColor=#000000;exitX=1.016;exitY=0.124;exitDx=0;exitDy=0;exitPerimeter=0;entryX=0.5;entryY=0;entryDx=0;entryDy=0;entryPerimeter=0;" parent="1" source="zyFTkj13hCmkJTpGe8fz-26" target="F41vKVcLln0AmlQAPf2m-1" edge="1">
          <mxGeometry relative="1" as="geometry">
            <Array as="points">
              <mxPoint x="1100" y="540" />
              <mxPoint x="1080" y="300" />
              <mxPoint x="772.75" y="440" />
            </Array>
            <mxPoint x="709.9999999999995" y="240" as="sourcePoint" />
            <mxPoint x="1100" y="321" as="targetPoint" />
          </mxGeometry>
        </mxCell>
        <mxCell id="F41vKVcLln0AmlQAPf2m-3" value="Read/write terraform&lt;br&gt;state changes" style="edgeLabel;html=1;align=center;verticalAlign=middle;resizable=0;points=[];" parent="F41vKVcLln0AmlQAPf2m-2" vertex="1" connectable="0">
          <mxGeometry x="0.0133" y="1" relative="1" as="geometry">
            <mxPoint x="5" y="-56" as="offset" />
          </mxGeometry>
        </mxCell>
        <mxCell id="F41vKVcLln0AmlQAPf2m-4" value="Read/write Teraform state changes" style="edgeLabel;html=1;align=center;verticalAlign=middle;resizable=0;points=[];" parent="F41vKVcLln0AmlQAPf2m-2" vertex="1" connectable="0">
          <mxGeometry x="-0.5394" y="-2" relative="1" as="geometry">
            <mxPoint x="123" as="offset" />
          </mxGeometry>
        </mxCell>
        <mxCell id="F41vKVcLln0AmlQAPf2m-9" style="edgeStyle=orthogonalEdgeStyle;rounded=0;orthogonalLoop=1;jettySize=auto;html=1;exitX=1;exitY=0.25;exitDx=0;exitDy=0;strokeColor=#FF66B3;entryX=0.55;entryY=0;entryDx=0;entryDy=0;entryPerimeter=0;" parent="1" source="zyFTkj13hCmkJTpGe8fz-26" target="zyFTkj13hCmkJTpGe8fz-125" edge="1">
          <mxGeometry relative="1" as="geometry">
            <mxPoint x="1040" y="322.2941176470588" as="targetPoint" />
          </mxGeometry>
        </mxCell>
        <mxCell id="F41vKVcLln0AmlQAPf2m-10" value="Terraform: Deploy staging services" style="edgeLabel;html=1;align=center;verticalAlign=middle;resizable=0;points=[];" parent="F41vKVcLln0AmlQAPf2m-9" vertex="1" connectable="0">
          <mxGeometry x="0.3706" y="-1" relative="1" as="geometry">
            <mxPoint x="10" as="offset" />
          </mxGeometry>
        </mxCell>
        <mxCell id="qLY9HPjB3zMnq8Yaa36Y-3" value="tdp-db-staging" style="shape=datastore;whiteSpace=wrap;html=1;strokeColor=#000000;fillColor=#ffffff;gradientColor=none;" parent="1" vertex="1">
          <mxGeometry x="1030" y="742.5" width="60" height="60" as="geometry" />
        </mxCell>
        <mxCell id="GpQ4ue8xVr6rsBJFWR4N-14" value="tdp-staticfiles-develop" style="shape=cylinder3;whiteSpace=wrap;html=1;boundedLbl=1;backgroundOutline=1;size=15;" parent="1" vertex="1">
          <mxGeometry x="905" y="630" width="60" height="80" as="geometry" />
        </mxCell>
        <mxCell id="GpQ4ue8xVr6rsBJFWR4N-15" value="tdp-datafiles-develop" style="shape=cylinder3;whiteSpace=wrap;html=1;boundedLbl=1;backgroundOutline=1;size=15;" parent="1" vertex="1">
          <mxGeometry x="965" y="630" width="60" height="80" as="geometry" />
        </mxCell>
        <mxCell id="GpQ4ue8xVr6rsBJFWR4N-16" style="edgeStyle=orthogonalEdgeStyle;rounded=0;orthogonalLoop=1;jettySize=auto;html=1;" parent="1" source="GpQ4ue8xVr6rsBJFWR4N-17" target="GpQ4ue8xVr6rsBJFWR4N-19" edge="1">
          <mxGeometry relative="1" as="geometry" />
        </mxCell>
        <mxCell id="GpQ4ue8xVr6rsBJFWR4N-17" value="tdp-frontend-develop" style="whiteSpace=wrap;html=1;aspect=fixed;" parent="1" vertex="1">
          <mxGeometry x="670" y="527.5" width="80" height="80" as="geometry" />
        </mxCell>
        <mxCell id="GpQ4ue8xVr6rsBJFWR4N-18" style="edgeStyle=orthogonalEdgeStyle;rounded=0;orthogonalLoop=1;jettySize=auto;html=1;exitX=1;exitY=0.25;exitDx=0;exitDy=0;entryX=0.5;entryY=0;entryDx=0;entryDy=0;" parent="1" source="GpQ4ue8xVr6rsBJFWR4N-19" target="GpQ4ue8xVr6rsBJFWR4N-20" edge="1">
          <mxGeometry relative="1" as="geometry">
            <Array as="points">
              <mxPoint x="880" y="620" />
              <mxPoint x="1055" y="620" />
            </Array>
          </mxGeometry>
        </mxCell>
        <mxCell id="GpQ4ue8xVr6rsBJFWR4N-22" style="edgeStyle=orthogonalEdgeStyle;rounded=0;orthogonalLoop=1;jettySize=auto;html=1;exitX=1;exitY=0.25;exitDx=0;exitDy=0;entryX=0.5;entryY=0;entryDx=0;entryDy=0;entryPerimeter=0;" parent="1" source="GpQ4ue8xVr6rsBJFWR4N-19" target="GpQ4ue8xVr6rsBJFWR4N-14" edge="1">
          <mxGeometry relative="1" as="geometry">
            <Array as="points">
              <mxPoint x="880" y="620" />
              <mxPoint x="935" y="620" />
            </Array>
          </mxGeometry>
        </mxCell>
        <mxCell id="GpQ4ue8xVr6rsBJFWR4N-23" style="edgeStyle=orthogonalEdgeStyle;rounded=0;orthogonalLoop=1;jettySize=auto;html=1;exitX=1;exitY=0.25;exitDx=0;exitDy=0;entryX=0.523;entryY=0.004;entryDx=0;entryDy=0;entryPerimeter=0;" parent="1" source="GpQ4ue8xVr6rsBJFWR4N-19" target="GpQ4ue8xVr6rsBJFWR4N-15" edge="1">
          <mxGeometry relative="1" as="geometry">
            <Array as="points">
              <mxPoint x="880" y="620" />
              <mxPoint x="996" y="620" />
            </Array>
          </mxGeometry>
        </mxCell>
        <mxCell id="GpQ4ue8xVr6rsBJFWR4N-19" value="tdp-backend-develop" style="whiteSpace=wrap;html=1;aspect=fixed;" parent="1" vertex="1">
          <mxGeometry x="800" y="577.5" width="80" height="80" as="geometry" />
        </mxCell>
        <mxCell id="GpQ4ue8xVr6rsBJFWR4N-20" value="tdp-db-develop" style="shape=datastore;whiteSpace=wrap;html=1;strokeColor=#000000;fillColor=#ffffff;gradientColor=none;" parent="1" vertex="1">
          <mxGeometry x="1025" y="646.25" width="60" height="60" as="geometry" />
        </mxCell>
        <mxCell id="zyFTkj13hCmkJTpGe8fz-128" value="" style="rounded=0;whiteSpace=wrap;html=1;dashed=1;fillColor=#f8cecc;strokeColor=#b85450;opacity=40;" parent="1" vertex="1">
          <mxGeometry x="890" y="560" width="240" height="255" as="geometry" />
        </mxCell>
        <mxCell id="zyFTkj13hCmkJTpGe8fz-125" value="" style="rounded=0;whiteSpace=wrap;html=1;dashed=1;fillColor=#dae8fc;strokeColor=#6c8ebf;opacity=40;" parent="1" vertex="1">
          <mxGeometry x="665" y="490" width="215" height="330" as="geometry" />
        </mxCell>
        <mxCell id="99iMTMwEb9X5dY0F1-DF-1" style="edgeStyle=orthogonalEdgeStyle;rounded=0;orthogonalLoop=1;jettySize=auto;html=1;exitX=0;exitY=0.75;exitDx=0;exitDy=0;endArrow=none;endFill=0;strokeColor=#00FF00;" parent="1" source="zyFTkj13hCmkJTpGe8fz-32" edge="1">
          <mxGeometry relative="1" as="geometry">
            <mxPoint x="20" y="800" as="targetPoint" />
          </mxGeometry>
        </mxCell>
        <mxCell id="99iMTMwEb9X5dY0F1-DF-4" value="" style="endArrow=classic;html=1;rounded=0;jumpSize=1;strokeColor=#00FF00;" parent="1" edge="1">
          <mxGeometry width="50" height="50" relative="1" as="geometry">
            <mxPoint x="20" y="617.26" as="sourcePoint" />
            <mxPoint x="100" y="617.26" as="targetPoint" />
          </mxGeometry>
        </mxCell>
        <mxCell id="99iMTMwEb9X5dY0F1-DF-5" value="" style="endArrow=classic;html=1;rounded=0;jumpSize=1;strokeColor=#00FF00;" parent="1" edge="1">
          <mxGeometry width="50" height="50" relative="1" as="geometry">
            <mxPoint x="20" y="710" as="sourcePoint" />
            <mxPoint x="100" y="710" as="targetPoint" />
          </mxGeometry>
        </mxCell>
        <mxCell id="99iMTMwEb9X5dY0F1-DF-6" value="" style="endArrow=classic;html=1;rounded=0;jumpSize=1;strokeColor=#00FF00;" parent="1" edge="1">
          <mxGeometry width="50" height="50" relative="1" as="geometry">
            <mxPoint x="20" y="800" as="sourcePoint" />
            <mxPoint x="100" y="800" as="targetPoint" />
          </mxGeometry>
        </mxCell>
        <mxCell id="99iMTMwEb9X5dY0F1-DF-8" value="Users" style="ellipse;whiteSpace=wrap;html=1;strokeColor=#00FF00;fillColor=#ffffff;gradientColor=none;" parent="1" vertex="1">
          <mxGeometry x="700" y="210" width="70" height="70" as="geometry" />
        </mxCell>
        <mxCell id="JAxSKtTpSHwUmQdn7iEc-1" value="" style="endArrow=classic;html=1;rounded=0;jumpSize=1;strokeColor=#33FF33;" parent="1" edge="1">
          <mxGeometry width="50" height="50" relative="1" as="geometry">
            <mxPoint x="590" y="569" as="sourcePoint" />
            <mxPoint x="670" y="569" as="targetPoint" />
          </mxGeometry>
        </mxCell>
        <mxCell id="JAxSKtTpSHwUmQdn7iEc-2" value="" style="endArrow=classic;html=1;rounded=0;jumpSize=1;strokeColor=#33FF33;" parent="1" edge="1">
          <mxGeometry width="50" height="50" relative="1" as="geometry">
            <mxPoint x="590" y="675.75" as="sourcePoint" />
            <mxPoint x="670" y="675.75" as="targetPoint" />
          </mxGeometry>
        </mxCell>
        <mxCell id="JAxSKtTpSHwUmQdn7iEc-7" value="" style="endArrow=none;html=1;rounded=0;arcSize=40;startFill=0;endFill=0;anchorPointDirection=0;fillColor=#60a917;strokeColor=#00FF00;" parent="1" edge="1">
          <mxGeometry width="50" height="50" relative="1" as="geometry">
            <mxPoint x="589.86" y="675" as="sourcePoint" />
            <mxPoint x="589.86" y="391" as="targetPoint" />
          </mxGeometry>
        </mxCell>
        <mxCell id="99iMTMwEb9X5dY0F1-DF-7" value="Web request (UI/API)" style="edgeLabel;html=1;align=center;verticalAlign=middle;resizable=0;points=[];" parent="1" vertex="1" connectable="0">
          <mxGeometry x="600" y="390" as="geometry" />
        </mxCell>
        <mxCell id="zyFTkj13hCmkJTpGe8fz-131" style="edgeStyle=elbowEdgeStyle;rounded=0;orthogonalLoop=1;jettySize=auto;html=1;startArrow=none;startFill=0;endArrow=classic;endFill=1;exitX=1;exitY=0.75;exitDx=0;exitDy=0;strokeColor=#99CCFF;" parent="1" source="zyFTkj13hCmkJTpGe8fz-26" edge="1">
          <mxGeometry relative="1" as="geometry">
            <Array as="points">
              <mxPoint x="520" y="390" />
            </Array>
            <mxPoint x="520" y="443" as="targetPoint" />
          </mxGeometry>
        </mxCell>
        <mxCell id="F41vKVcLln0AmlQAPf2m-8" value="Terraform: Deploy dev services" style="edgeLabel;html=1;align=center;verticalAlign=middle;resizable=0;points=[];" parent="zyFTkj13hCmkJTpGe8fz-131" vertex="1" connectable="0">
          <mxGeometry x="-0.3539" y="4" relative="1" as="geometry">
            <mxPoint x="40" y="47" as="offset" />
          </mxGeometry>
        </mxCell>
        <mxCell id="zyFTkj13hCmkJTpGe8fz-118" style="edgeStyle=elbowEdgeStyle;rounded=0;orthogonalLoop=1;jettySize=auto;html=1;entryX=1;entryY=0.75;entryDx=0;entryDy=0;startArrow=classic;startFill=1;endArrow=none;endFill=0;strokeColor=#00FF00;" parent="1" source="zyFTkj13hCmkJTpGe8fz-129" target="zyFTkj13hCmkJTpGe8fz-32" edge="1">
          <mxGeometry relative="1" as="geometry">
            <Array as="points">
              <mxPoint x="1200" y="700" />
              <mxPoint x="1200" y="650" />
            </Array>
          </mxGeometry>
        </mxCell>
        <mxCell id="zyFTkj13hCmkJTpGe8fz-170" value="UI/API" style="edgeLabel;html=1;align=center;verticalAlign=middle;resizable=0;points=[];" parent="zyFTkj13hCmkJTpGe8fz-118" vertex="1" connectable="0">
          <mxGeometry x="-0.2341" y="1" relative="1" as="geometry">
            <mxPoint as="offset" />
          </mxGeometry>
        </mxCell>
        <mxCell id="JAxSKtTpSHwUmQdn7iEc-8" value="" style="endArrow=classic;html=1;rounded=0;strokeColor=#00FF00;" parent="1" edge="1">
          <mxGeometry width="50" height="50" relative="1" as="geometry">
            <mxPoint x="770" y="250" as="sourcePoint" />
            <mxPoint x="840" y="330" as="targetPoint" />
          </mxGeometry>
        </mxCell>
        <mxCell id="JAxSKtTpSHwUmQdn7iEc-10" value="Nginx" style="rounded=0;whiteSpace=wrap;html=1;" parent="1" vertex="1">
          <mxGeometry x="100" y="640" width="60" height="20" as="geometry" />
        </mxCell>
        <mxCell id="JAxSKtTpSHwUmQdn7iEc-11" value="Nginx" style="rounded=0;whiteSpace=wrap;html=1;" parent="1" vertex="1">
          <mxGeometry x="100" y="730" width="60" height="20" as="geometry" />
        </mxCell>
        <mxCell id="JAxSKtTpSHwUmQdn7iEc-12" value="Nginx" style="rounded=0;whiteSpace=wrap;html=1;" parent="1" vertex="1">
          <mxGeometry x="100" y="820" width="60" height="20" as="geometry" />
        </mxCell>
        <mxCell id="JAxSKtTpSHwUmQdn7iEc-13" value="Nginx" style="rounded=0;whiteSpace=wrap;html=1;" parent="1" vertex="1">
          <mxGeometry x="670" y="587.5" width="60" height="20" as="geometry" />
        </mxCell>
        <mxCell id="JAxSKtTpSHwUmQdn7iEc-14" value="Nginx" style="rounded=0;whiteSpace=wrap;html=1;" parent="1" vertex="1">
          <mxGeometry x="670" y="690" width="60" height="20" as="geometry" />
        </mxCell>
        <mxCell id="JAxSKtTpSHwUmQdn7iEc-15" value="Nginx" style="rounded=0;whiteSpace=wrap;html=1;" parent="1" vertex="1">
          <mxGeometry x="1282.5" y="720" width="60" height="20" as="geometry" />
        </mxCell>
        <mxCell id="zyFTkj13hCmkJTpGe8fz-127" value="" style="rounded=0;whiteSpace=wrap;html=1;dashed=1;fillColor=#f8cecc;strokeColor=#b85450;opacity=30;" parent="1" vertex="1">
          <mxGeometry x="80" y="480" width="240" height="470" as="geometry" />
        </mxCell>
      </root>
    </mxGraphModel>
  </diagram>
</mxfile>
